# xmcd CD database file
#
# Track frame offsets:
#	150
#	22632
#	44587
#	67480
#	90057
#	111552
#	134000
#	156407
#	178250
#	200150
#	222695
#
# Disc length: 3266 seconds
#
# Revision: 0
# Processed by: cddbd v1.5.1PL0 Copyright (c) Steve Scherf et al.
# Submitted via: CDex 1.51
#
DISCID=b00cc00b
DTITLE=Hector Tricoche - Salsa Por Todas Partes
DYEAR=1900
DGENRE=Salsa
TTITLE0=Sin Control
TTITLE1=Tendre Que Olvidar
TTITLE2=Mas Que Una Intencion
TTITLE3=Por Todas Partes
TTITLE4=Ya No Puedo Estar Sin Ti
TTITLE5=Rezo Por Ti
TTITLE6=Como Vivir Sin Ti
TTITLE7=Un Buen Perdedor
TTITLE8=Santo Remedio
TTITLE9=Laura No Esta
TTITLE10=Para Decir Adios
EXTD=
EXTT0=
EXTT1=
EXTT2=
EXTT3=
EXTT4=
EXTT5=
EXTT6=
EXTT7=
EXTT8=
EXTT9=
EXTT10=
PLAYORDER=
